<svg width="136" height="25" viewBox="0 0 136 25" fill="none" xmlns="http://www.w3.org/2000/svg">
<path d="M0.235078 9V0.539999H2.45508V7.164H6.07908V9H0.235078ZM6.02311 9L9.98311 0.539999H11.7831L15.7671 9H13.5471L12.5271 6.672L13.3791 7.284H8.41111L9.25111 6.672L8.24311 9H6.02311ZM10.8711 2.82L9.46711 6.168L9.13111 5.604H12.6471L12.3471 6.168L10.9311 2.82H10.8711ZM17.9049 9L14.8809 0.539999H17.1609L19.1409 6.66H18.5889L20.7969 0.539999H22.3809L24.3729 6.66H23.8449L25.9809 0.539999H28.1169L25.0809 9H23.3049L21.3849 3.492H21.6609L19.6929 9H17.9049ZM39.744 9.132C39.376 9.06 39.008 8.928 38.64 8.736C38.28 8.536 37.936 8.304 37.608 8.04L38.04 8.064C37.648 8.392 37.208 8.652 36.72 8.844C36.24 9.036 35.732 9.132 35.196 9.132C34.532 9.132 33.956 9.032 33.468 8.832C32.98 8.624 32.604 8.34 32.34 7.98C32.076 7.612 31.944 7.184 31.944 6.696C31.944 6.152 32.104 5.692 32.424 5.316C32.744 4.932 33.164 4.6 33.684 4.32L34.116 4.104L33.78 4.512C33.468 4.24 33.228 3.94 33.06 3.612C32.9 3.284 32.82 2.944 32.82 2.592C32.82 2.16 32.932 1.78 33.156 1.452C33.38 1.124 33.692 0.868 34.092 0.684C34.492 0.5 34.964 0.408 35.508 0.408C36.22 0.408 36.788 0.592 37.212 0.96C37.644 1.32 37.86 1.808 37.86 2.424C37.86 2.744 37.796 3.044 37.668 3.324C37.548 3.604 37.356 3.86 37.092 4.092C36.828 4.324 36.5 4.532 36.108 4.716L36.156 4.332L37.992 6.084H37.56C37.768 5.756 37.924 5.396 38.028 5.004C38.14 4.612 38.212 4.204 38.244 3.78H39.984C39.952 4.428 39.836 5.052 39.636 5.652C39.436 6.244 39.16 6.772 38.808 7.236L38.796 6.792C39.028 7.008 39.276 7.184 39.54 7.32C39.804 7.448 40.088 7.548 40.392 7.62L39.744 9.132ZM35.34 7.524C35.644 7.524 35.916 7.472 36.156 7.368C36.404 7.264 36.636 7.108 36.852 6.9L36.804 7.356L34.392 5.088L35.28 5.1L34.968 5.244C34.784 5.34 34.62 5.456 34.476 5.592C34.34 5.72 34.236 5.864 34.164 6.024C34.092 6.176 34.056 6.348 34.056 6.54C34.056 6.844 34.168 7.084 34.392 7.26C34.624 7.436 34.94 7.524 35.34 7.524ZM35.508 1.788C35.268 1.788 35.08 1.856 34.944 1.992C34.808 2.128 34.74 2.312 34.74 2.544C34.74 2.672 34.764 2.796 34.812 2.916C34.868 3.028 34.948 3.148 35.052 3.276C35.164 3.404 35.304 3.552 35.472 3.72L35.004 3.732C35.428 3.54 35.736 3.352 35.928 3.168C36.128 2.984 36.228 2.756 36.228 2.484C36.228 2.252 36.16 2.08 36.024 1.968C35.896 1.848 35.724 1.788 35.508 1.788ZM44.4968 9V0.539999H47.9048C48.9048 0.539999 49.7488 0.711999 50.4368 1.056C51.1248 1.392 51.6448 1.876 51.9968 2.508C52.3568 3.132 52.5368 3.884 52.5368 4.764C52.5368 5.636 52.3568 6.388 51.9968 7.02C51.6448 7.652 51.1248 8.14 50.4368 8.484C49.7488 8.828 48.9048 9 47.9048 9H44.4968ZM46.7168 7.2H47.7608C48.6328 7.2 49.2768 7 49.6928 6.6C50.1168 6.2 50.3288 5.588 50.3288 4.764C50.3288 3.932 50.1168 3.32 49.6928 2.928C49.2768 2.528 48.6328 2.328 47.7608 2.328H46.7168V7.2ZM53.8718 9V0.539999H59.9438V2.232H55.9958V3.852H59.6558V5.556H55.9958V7.296H59.9438V9H53.8718ZM63.9457 9L60.1057 0.539999H62.4817L65.2177 6.972H64.5577L67.2817 0.539999H69.5737L65.7337 9H63.9457ZM70.114 9V0.539999H76.186V2.232H72.238V3.852H75.898V5.556H72.238V7.296H76.186V9H70.114ZM77.3445 9V0.539999H79.5645V7.164H83.1885V9H77.3445ZM83.5852 4.764C83.5852 3.884 83.7572 3.12 84.1012 2.472C84.4452 1.816 84.9372 1.308 85.5772 0.948C86.2172 0.588 86.9732 0.408 87.8452 0.408C88.7252 0.408 89.4852 0.588 90.1252 0.948C90.7652 1.308 91.2572 1.816 91.6012 2.472C91.9532 3.12 92.1292 3.884 92.1292 4.764C92.1292 5.636 91.9532 6.4 91.6012 7.056C91.2572 7.712 90.7652 8.224 90.1252 8.592C89.4852 8.952 88.7252 9.132 87.8452 9.132C86.9732 9.132 86.2172 8.952 85.5772 8.592C84.9452 8.224 84.4532 7.712 84.1012 7.056C83.7572 6.4 83.5852 5.636 83.5852 4.764ZM85.9012 4.764C85.9012 5.556 86.0612 6.176 86.3812 6.624C86.7012 7.064 87.1892 7.284 87.8452 7.284C88.5012 7.284 88.9932 7.064 89.3212 6.624C89.6492 6.176 89.8132 5.556 89.8132 4.764C89.8132 3.972 89.6492 3.356 89.3212 2.916C88.9932 2.476 88.5012 2.256 87.8452 2.256C87.1892 2.256 86.7012 2.476 86.3812 2.916C86.0612 3.348 85.9012 3.964 85.9012 4.764ZM93.4577 9V0.539999H97.6097C98.5857 0.539999 99.3217 0.779999 99.8177 1.26C100.314 1.732 100.562 2.376 100.562 3.192C100.562 4 100.314 4.644 99.8177 5.124C99.3217 5.604 98.5857 5.844 97.6097 5.844H95.6777V9H93.4577ZM95.6777 4.14H97.3217C97.6977 4.14 97.9777 4.06 98.1617 3.9C98.3457 3.732 98.4377 3.496 98.4377 3.192C98.4377 2.888 98.3457 2.652 98.1617 2.484C97.9777 2.316 97.6977 2.232 97.3217 2.232H95.6777V4.14ZM101.697 9V0.539999H103.617L106.389 6.744H105.993L108.753 0.539999H110.685V9H108.681V3.816H109.197L106.797 9H105.549L103.137 3.816H103.689V9H101.697ZM112.266 9V0.539999H118.338V2.232H114.39V3.852H118.05V5.556H114.39V7.296H118.338V9H112.266ZM119.497 9V0.539999H121.129L125.413 5.856H125.065V0.539999H127.117V9H125.485L121.225 3.684H121.573V9H119.497ZM130.605 9V2.328H128.037V0.539999H135.393V2.328H132.825V9H130.605ZM18.903 24V15.54H21.123V24H18.903ZM25.8682 24.132C25.1882 24.132 24.5402 24.052 23.9242 23.892C23.3162 23.724 22.8042 23.5 22.3882 23.22L23.0122 21.504C23.2762 21.672 23.5642 21.816 23.8762 21.936C24.1882 22.056 24.5122 22.152 24.8482 22.224C25.1922 22.288 25.5402 22.32 25.8922 22.32C26.4202 22.32 26.7842 22.252 26.9842 22.116C27.1922 21.98 27.2962 21.804 27.2962 21.588C27.2962 21.396 27.2282 21.248 27.0922 21.144C26.9562 21.032 26.7002 20.936 26.3242 20.856L24.8602 20.556C24.0842 20.396 23.5042 20.12 23.1202 19.728C22.7362 19.328 22.5442 18.808 22.5442 18.168C22.5442 17.608 22.6922 17.124 22.9882 16.716C23.2922 16.3 23.7162 15.98 24.2602 15.756C24.8042 15.524 25.4402 15.408 26.1682 15.408C26.7682 15.408 27.3322 15.492 27.8602 15.66C28.3882 15.82 28.8202 16.044 29.1562 16.332L28.5322 17.94C28.2122 17.708 27.8522 17.532 27.4522 17.412C27.0522 17.284 26.6082 17.22 26.1202 17.22C25.6562 17.22 25.3042 17.292 25.0642 17.436C24.8322 17.572 24.7162 17.768 24.7162 18.024C24.7162 18.2 24.7842 18.352 24.9202 18.48C25.0642 18.6 25.3242 18.7 25.7002 18.78L27.1402 19.068C27.9162 19.22 28.4962 19.492 28.8802 19.884C29.2722 20.276 29.4682 20.788 29.4682 21.42C29.4682 21.964 29.3162 22.44 29.0122 22.848C28.7162 23.256 28.3002 23.572 27.7642 23.796C27.2282 24.02 26.5962 24.132 25.8682 24.132ZM33.919 24.132C33.239 24.132 32.591 24.052 31.975 23.892C31.367 23.724 30.855 23.5 30.439 23.22L31.063 21.504C31.327 21.672 31.615 21.816 31.927 21.936C32.239 22.056 32.563 22.152 32.899 22.224C33.243 22.288 33.591 22.32 33.943 22.32C34.471 22.32 34.835 22.252 35.035 22.116C35.243 21.98 35.347 21.804 35.347 21.588C35.347 21.396 35.279 21.248 35.143 21.144C35.007 21.032 34.751 20.936 34.375 20.856L32.911 20.556C32.135 20.396 31.555 20.12 31.171 19.728C30.787 19.328 30.595 18.808 30.595 18.168C30.595 17.608 30.743 17.124 31.039 16.716C31.343 16.3 31.767 15.98 32.311 15.756C32.855 15.524 33.491 15.408 34.219 15.408C34.819 15.408 35.383 15.492 35.911 15.66C36.439 15.82 36.871 16.044 37.207 16.332L36.583 17.94C36.263 17.708 35.903 17.532 35.503 17.412C35.103 17.284 34.659 17.22 34.171 17.22C33.707 17.22 33.355 17.292 33.115 17.436C32.883 17.572 32.767 17.768 32.767 18.024C32.767 18.2 32.835 18.352 32.971 18.48C33.115 18.6 33.375 18.7 33.751 18.78L35.191 19.068C35.967 19.22 36.547 19.492 36.931 19.884C37.323 20.276 37.519 20.788 37.519 21.42C37.519 21.964 37.367 22.44 37.063 22.848C36.767 23.256 36.351 23.572 35.815 23.796C35.279 24.02 34.647 24.132 33.919 24.132ZM38.7898 24V15.54H40.4218L44.7058 20.856H44.3578V15.54H46.4098V24H44.7778L40.5178 18.684H40.8658V24H38.7898ZM47.7015 20.088V17.904H49.9215V20.088H47.7015ZM47.7015 24V21.816H49.9215V24H47.7015ZM57.5238 24.132C56.4838 24.132 55.6838 23.752 55.1238 22.992C54.5718 22.224 54.2958 21.14 54.2958 19.74C54.2958 18.324 54.5718 17.248 55.1238 16.512C55.6838 15.776 56.4838 15.408 57.5238 15.408C58.5718 15.408 59.3718 15.776 59.9238 16.512C60.4758 17.248 60.7518 18.32 60.7518 19.728C60.7518 21.136 60.4718 22.224 59.9118 22.992C59.3598 23.752 58.5638 24.132 57.5238 24.132ZM57.5238 22.368C57.9078 22.368 58.1918 22.16 58.3758 21.744C58.5678 21.328 58.6638 20.66 58.6638 19.74C58.6638 18.812 58.5678 18.152 58.3758 17.76C58.1918 17.36 57.9078 17.16 57.5238 17.16C57.1398 17.16 56.8518 17.36 56.6598 17.76C56.4758 18.152 56.3838 18.808 56.3838 19.728C56.3838 20.656 56.4758 21.328 56.6598 21.744C56.8518 22.16 57.1398 22.368 57.5238 22.368ZM64.7191 24.132C63.6951 24.132 62.8871 23.916 62.2951 23.484C61.7111 23.052 61.4191 22.452 61.4191 21.684C61.4191 21.076 61.5991 20.576 61.9591 20.184C62.3191 19.784 62.7751 19.552 63.3271 19.488V19.836C62.8311 19.732 62.4271 19.492 62.1151 19.116C61.8031 18.732 61.6471 18.268 61.6471 17.724C61.6471 17.004 61.9231 16.44 62.4751 16.032C63.0271 15.616 63.7751 15.408 64.7191 15.408C65.6711 15.408 66.4231 15.616 66.9751 16.032C67.5271 16.44 67.8031 17.004 67.8031 17.724C67.8031 18.276 67.6511 18.744 67.3471 19.128C67.0431 19.512 66.6471 19.744 66.1591 19.824V19.488C66.7111 19.568 67.1591 19.808 67.5031 20.208C67.8471 20.6 68.0191 21.092 68.0191 21.684C68.0191 22.452 67.7271 23.052 67.1431 23.484C66.5591 23.916 65.7511 24.132 64.7191 24.132ZM64.7191 22.476C65.1511 22.476 65.4751 22.396 65.6911 22.236C65.9151 22.068 66.0271 21.828 66.0271 21.516C66.0271 21.196 65.9151 20.956 65.6911 20.796C65.4751 20.636 65.1511 20.556 64.7191 20.556C64.2951 20.556 63.9711 20.636 63.7471 20.796C63.5231 20.956 63.4111 21.196 63.4111 21.516C63.4111 21.828 63.5231 22.068 63.7471 22.236C63.9711 22.396 64.2951 22.476 64.7191 22.476ZM64.7191 18.888C65.0631 18.888 65.3271 18.808 65.5111 18.648C65.7031 18.48 65.7991 18.256 65.7991 17.976C65.7991 17.696 65.7031 17.476 65.5111 17.316C65.3271 17.148 65.0631 17.064 64.7191 17.064C64.3751 17.064 64.1071 17.148 63.9151 17.316C63.7311 17.476 63.6391 17.696 63.6391 17.976C63.6391 18.256 63.7311 18.48 63.9151 18.648C64.1071 18.808 64.3751 18.888 64.7191 18.888ZM72.2505 24.132C71.1305 24.132 70.2665 23.76 69.6585 23.016C69.0505 22.264 68.7465 21.208 68.7465 19.848C68.7465 18.912 68.9025 18.116 69.2145 17.46C69.5345 16.796 69.9825 16.288 70.5585 15.936C71.1425 15.584 71.8425 15.408 72.6585 15.408C73.1225 15.408 73.5785 15.48 74.0265 15.624C74.4825 15.768 74.8825 15.984 75.2265 16.272L74.5425 17.892C74.2545 17.66 73.9465 17.492 73.6185 17.388C73.2905 17.276 72.9625 17.22 72.6345 17.22C72.0345 17.22 71.5785 17.408 71.2665 17.784C70.9625 18.152 70.8105 18.708 70.8105 19.452V20.076H70.6305C70.7025 19.732 70.8345 19.44 71.0265 19.2C71.2185 18.952 71.4585 18.764 71.7465 18.636C72.0425 18.508 72.3665 18.444 72.7185 18.444C73.1905 18.444 73.6105 18.564 73.9785 18.804C74.3465 19.036 74.6385 19.36 74.8545 19.776C75.0785 20.192 75.1905 20.664 75.1905 21.192C75.1905 21.768 75.0625 22.276 74.8065 22.716C74.5585 23.156 74.2145 23.504 73.7745 23.76C73.3345 24.008 72.8265 24.132 72.2505 24.132ZM72.1305 22.452C72.3385 22.452 72.5225 22.404 72.6825 22.308C72.8425 22.212 72.9625 22.076 73.0425 21.9C73.1305 21.724 73.1745 21.52 73.1745 21.288C73.1745 21.048 73.1305 20.844 73.0425 20.676C72.9625 20.5 72.8425 20.364 72.6825 20.268C72.5225 20.164 72.3385 20.112 72.1305 20.112C71.9225 20.112 71.7385 20.164 71.5785 20.268C71.4185 20.364 71.2945 20.5 71.2065 20.676C71.1265 20.844 71.0865 21.048 71.0865 21.288C71.0865 21.52 71.1265 21.724 71.2065 21.9C71.2945 22.076 71.4185 22.212 71.5785 22.308C71.7385 22.404 71.9225 22.452 72.1305 22.452ZM79.4458 24.132C78.3258 24.132 77.4618 23.76 76.8538 23.016C76.2458 22.264 75.9418 21.208 75.9418 19.848C75.9418 18.912 76.0978 18.116 76.4098 17.46C76.7298 16.796 77.1778 16.288 77.7538 15.936C78.3378 15.584 79.0378 15.408 79.8538 15.408C80.3178 15.408 80.7738 15.48 81.2218 15.624C81.6778 15.768 82.0778 15.984 82.4218 16.272L81.7378 17.892C81.4498 17.66 81.1418 17.492 80.8138 17.388C80.4858 17.276 80.1578 17.22 79.8298 17.22C79.2298 17.22 78.7738 17.408 78.4618 17.784C78.1578 18.152 78.0058 18.708 78.0058 19.452V20.076H77.8258C77.8978 19.732 78.0298 19.44 78.2218 19.2C78.4138 18.952 78.6538 18.764 78.9418 18.636C79.2378 18.508 79.5618 18.444 79.9138 18.444C80.3858 18.444 80.8058 18.564 81.1738 18.804C81.5418 19.036 81.8338 19.36 82.0498 19.776C82.2738 20.192 82.3858 20.664 82.3858 21.192C82.3858 21.768 82.2578 22.276 82.0018 22.716C81.7538 23.156 81.4098 23.504 80.9698 23.76C80.5298 24.008 80.0218 24.132 79.4458 24.132ZM79.3258 22.452C79.5338 22.452 79.7178 22.404 79.8778 22.308C80.0378 22.212 80.1578 22.076 80.2378 21.9C80.3258 21.724 80.3698 21.52 80.3698 21.288C80.3698 21.048 80.3258 20.844 80.2378 20.676C80.1578 20.5 80.0378 20.364 79.8778 20.268C79.7178 20.164 79.5338 20.112 79.3258 20.112C79.1178 20.112 78.9338 20.164 78.7738 20.268C78.6138 20.364 78.4898 20.5 78.4018 20.676C78.3218 20.844 78.2818 21.048 78.2818 21.288C78.2818 21.52 78.3218 21.724 78.4018 21.9C78.4898 22.076 78.6138 22.212 78.7738 22.308C78.9338 22.404 79.1178 22.452 79.3258 22.452ZM83.4371 21.516V19.86H87.3611V21.516H83.4371ZM88.7437 24L92.7637 16.704V17.376H88.5637V15.54H94.8397V17.196L91.1557 24H88.7437ZM98.831 24.132C98.455 24.132 98.079 24.092 97.703 24.012C97.327 23.94 96.979 23.836 96.659 23.7C96.339 23.564 96.067 23.404 95.843 23.22L96.515 21.588C96.867 21.828 97.235 22.012 97.619 22.14C98.003 22.26 98.391 22.32 98.783 22.32C99.191 22.32 99.507 22.232 99.731 22.056C99.963 21.88 100.079 21.632 100.079 21.312C100.079 20.992 99.971 20.74 99.755 20.556C99.539 20.372 99.247 20.28 98.879 20.28C98.607 20.28 98.355 20.328 98.123 20.424C97.891 20.512 97.671 20.648 97.463 20.832H96.095V15.54H101.639V17.328H98.159V19.212H97.667C97.859 18.988 98.111 18.82 98.423 18.708C98.735 18.588 99.079 18.528 99.455 18.528C99.999 18.528 100.475 18.644 100.883 18.876C101.291 19.1 101.607 19.416 101.831 19.824C102.063 20.232 102.179 20.708 102.179 21.252C102.179 21.828 102.043 22.336 101.771 22.776C101.499 23.208 101.111 23.544 100.607 23.784C100.111 24.016 99.519 24.132 98.831 24.132ZM106.086 24.132C105.046 24.132 104.246 23.752 103.686 22.992C103.134 22.224 102.858 21.14 102.858 19.74C102.858 18.324 103.134 17.248 103.686 16.512C104.246 15.776 105.046 15.408 106.086 15.408C107.134 15.408 107.934 15.776 108.486 16.512C109.038 17.248 109.314 18.32 109.314 19.728C109.314 21.136 109.034 22.224 108.474 22.992C107.922 23.752 107.126 24.132 106.086 24.132ZM106.086 22.368C106.47 22.368 106.754 22.16 106.938 21.744C107.13 21.328 107.226 20.66 107.226 19.74C107.226 18.812 107.13 18.152 106.938 17.76C106.754 17.36 106.47 17.16 106.086 17.16C105.702 17.16 105.414 17.36 105.222 17.76C105.038 18.152 104.946 18.808 104.946 19.728C104.946 20.656 105.038 21.328 105.222 21.744C105.414 22.16 105.702 22.368 106.086 22.368ZM113.282 24.132C112.242 24.132 111.442 23.752 110.882 22.992C110.33 22.224 110.054 21.14 110.054 19.74C110.054 18.324 110.33 17.248 110.882 16.512C111.442 15.776 112.242 15.408 113.282 15.408C114.33 15.408 115.13 15.776 115.682 16.512C116.234 17.248 116.51 18.32 116.51 19.728C116.51 21.136 116.23 22.224 115.67 22.992C115.118 23.752 114.322 24.132 113.282 24.132ZM113.282 22.368C113.666 22.368 113.95 22.16 114.134 21.744C114.326 21.328 114.422 20.66 114.422 19.74C114.422 18.812 114.326 18.152 114.134 17.76C113.95 17.36 113.666 17.16 113.282 17.16C112.898 17.16 112.61 17.36 112.418 17.76C112.234 18.152 112.142 18.808 112.142 19.728C112.142 20.656 112.234 21.328 112.418 21.744C112.61 22.16 112.898 22.368 113.282 22.368Z" fill="#013D79"/>
</svg>
