<svg width="393" height="277" viewBox="0 0 393 277" fill="none" xmlns="http://www.w3.org/2000/svg">
<g clip-path="url(#clip0_2884_2)">
<path d="M27.4226 8.27166V39.1525H19.1218V8.27166H27.4226ZM37.7809 8.27166V14.0194H9V8.27166H37.7809Z" fill="#013D79"/>
<path d="M53.0109 14.7617L44.6155 39.1525H35.6998L48.3521 8.27166H54.0042L53.0109 14.7617ZM59.9638 39.1525L51.5447 14.7617L50.4568 8.27166H56.1799L68.9031 39.1525H59.9638ZM59.6327 27.6358V33.3836H41.9668V27.6358H59.6327Z" fill="#013D79"/>
<path d="M85.1737 28.6751H76.6127V22.9273H85.1737C86.3404 22.9273 87.2863 22.7506 88.0116 22.3971C88.7368 22.0436 89.265 21.5558 89.5961 20.9337C89.9429 20.2974 90.1163 19.5833 90.1163 18.7915C90.1163 17.9431 89.9429 17.1584 89.5961 16.4373C89.265 15.7162 88.7368 15.1364 88.0116 14.6981C87.2863 14.2456 86.3404 14.0194 85.1737 14.0194H79.7344V39.1525H71.4336V8.27166H85.1737C87.9327 8.27166 90.3055 8.72413 92.2921 9.62906C94.2943 10.534 95.8315 11.7783 96.9036 13.3619C97.9757 14.9314 98.5118 16.7271 98.5118 18.7491C98.5118 20.7428 97.9757 22.4819 96.9036 23.9666C95.8315 25.4513 94.2943 26.6107 92.2921 27.4449C90.3055 28.265 87.9327 28.6751 85.1737 28.6751Z" fill="#013D79"/>
<path d="M134.624 28.6963H142.901C142.791 30.8455 142.144 32.7402 140.962 34.3804C139.779 36.0206 138.14 37.3002 136.043 38.2193C133.962 39.1242 131.502 39.5767 128.664 39.5767C126.362 39.5767 124.305 39.2303 122.492 38.5375C120.695 37.8446 119.165 36.8478 117.904 35.5469C116.658 34.2461 115.705 32.6695 115.042 30.8172C114.396 28.965 114.073 26.8794 114.073 24.5605V22.8849C114.073 20.566 114.412 18.4804 115.09 16.6282C115.783 14.7617 116.761 13.1781 118.022 11.8773C119.299 10.5623 120.829 9.55836 122.61 8.86552C124.392 8.17268 126.37 7.82626 128.546 7.82626C131.542 7.82626 134.072 8.30701 136.137 9.2685C138.203 10.23 139.803 11.552 140.938 13.2347C142.073 14.9031 142.743 16.8049 142.948 18.94H134.671C134.64 17.7805 134.419 16.812 134.009 16.0343C133.599 15.2425 132.953 14.6486 132.07 14.2527C131.187 13.8568 130.012 13.6588 128.546 13.6588C127.521 13.6588 126.631 13.8285 125.874 14.1679C125.117 14.5072 124.486 15.0445 123.982 15.7798C123.477 16.515 123.099 17.4695 122.847 18.643C122.61 19.8025 122.492 21.2023 122.492 22.8425V24.5605C122.492 26.2007 122.602 27.6005 122.823 28.7599C123.044 29.9194 123.398 30.8667 123.887 31.602C124.376 32.3372 125.007 32.8816 125.779 33.2351C126.567 33.5745 127.529 33.7441 128.664 33.7441C129.926 33.7441 130.99 33.5674 131.857 33.2139C132.724 32.8463 133.394 32.2948 133.867 31.5596C134.34 30.8102 134.592 29.8557 134.624 28.6963Z" fill="#013D79"/>
<path d="M170.027 20.5307V26.2572H152.361V20.5307H170.027ZM155.128 8.27166V39.1525H146.827V8.27166H155.128ZM175.608 8.27166V39.1525H167.331V8.27166H175.608Z" fill="#013D79"/>
<path d="M189.703 8.27166V39.1525H181.425V8.27166H189.703ZM181.898 6.65975L186.581 0H195L188.402 6.65975H181.898Z" fill="#013D79"/>
<path d="M21.5116 272.869L23.1092 266.613H25.1813L22.5925 274.797H21.2532L21.5116 272.869ZM20.0616 266.613L21.6592 272.869L21.9281 274.797H20.573L18 266.613H20.0616Z" fill="#013D79"/>
<path d="M27.7122 266.613V274.797H25.8668V266.613H27.7122Z" fill="#013D79"/>
<path d="M34.2977 273.279V274.797H30.2061V273.279H34.2977ZM30.8652 266.613V274.797H29.0145V266.613H30.8652ZM33.7704 269.862V271.329H30.2061V269.862H33.7704ZM34.3135 266.613V268.137H30.2061V266.613H34.3135ZM32.3363 264.422L34.0657 266.001V266.074H32.6685L31.8248 265.31L30.9918 266.074H29.6209V265.978L31.3187 264.422H32.3363ZM30.8705 276.033C30.8705 275.793 30.9619 275.593 31.1447 275.432C31.3275 275.275 31.5647 275.196 31.8565 275.196C32.1482 275.196 32.3855 275.275 32.5683 275.432C32.7511 275.593 32.8425 275.793 32.8425 276.033C32.8425 276.273 32.7511 276.472 32.5683 276.629C32.3855 276.79 32.1482 276.871 31.8565 276.871C31.5647 276.871 31.3275 276.79 31.1447 276.629C30.9619 276.472 30.8705 276.273 30.8705 276.033Z" fill="#013D79"/>
<path d="M41.4685 266.613V274.797H39.6231L36.9077 269.705V274.797H35.057V266.613H36.9077L39.6231 271.706V266.613H41.4685Z" fill="#013D79"/>
<path d="M51.7396 266.613V274.797H49.8941L47.1787 269.705V274.797H45.328V266.613H47.1787L49.8941 271.706V266.613H51.7396Z" fill="#013D79"/>
<path d="M59.1898 270.424V273.785C59.0597 273.939 58.8594 274.104 58.5887 274.28C58.3216 274.452 57.9841 274.6 57.5764 274.724C57.1686 274.847 56.6888 274.909 56.1369 274.909C55.6272 274.909 55.165 274.823 54.7502 274.651C54.3355 274.475 53.9787 274.218 53.6799 273.881C53.3846 273.54 53.1561 273.124 52.9944 272.633C52.8363 272.138 52.7572 271.573 52.7572 270.936V270.48C52.7572 269.843 52.838 269.278 52.9997 268.783C53.1614 268.288 53.3881 267.872 53.6799 267.535C53.9752 267.194 54.3214 266.936 54.7186 266.76C55.1193 266.584 55.5587 266.495 56.0368 266.495C56.7433 266.495 57.318 266.615 57.7609 266.855C58.2038 267.091 58.5395 267.419 58.768 267.839C58.9965 268.255 59.1353 268.736 59.1845 269.283H57.4076C57.3725 269.013 57.3057 268.785 57.2073 268.597C57.1124 268.406 56.9753 268.262 56.796 268.165C56.6167 268.064 56.3847 268.013 56.1 268.013C55.8786 268.013 55.6765 268.064 55.4937 268.165C55.3144 268.266 55.1615 268.42 55.035 268.626C54.9084 268.828 54.81 269.083 54.7397 269.39C54.6729 269.697 54.6395 270.057 54.6395 270.469V270.936C54.6395 271.344 54.6711 271.702 54.7344 272.009C54.8012 272.316 54.8996 272.573 55.0297 272.779C55.1633 272.981 55.332 273.135 55.5359 273.24C55.7432 273.341 55.9875 273.392 56.2687 273.392C56.4656 273.392 56.6343 273.375 56.7749 273.341C56.9155 273.304 57.0315 273.259 57.1229 273.206C57.2178 273.15 57.2899 273.098 57.3391 273.049V271.779H56.0526V270.424H59.1898Z" fill="#013D79"/>
<path d="M65.4431 269.862V271.38H61.5045V269.862H65.4431ZM62.1214 266.613V274.797H60.2707V266.613H62.1214ZM66.6875 266.613V274.797H64.842V266.613H66.6875Z" fill="#013D79"/>
<path d="M69.83 266.613V274.797H67.9845V266.613H69.83Z" fill="#013D79"/>
<path d="M76.4155 273.279V274.797H72.3239V273.279H76.4155ZM72.983 266.613V274.797H71.1323V266.613H72.983ZM75.8882 269.862V271.329H72.3239V269.862H75.8882ZM76.4313 266.613V268.137H72.3239V266.613H76.4313ZM74.4541 264.422L76.1835 266.001V266.074H74.7862L73.9426 265.31L73.1095 266.074H71.7386V265.978L73.4364 264.422H74.4541Z" fill="#013D79"/>
<path d="M83.5862 266.613V274.797H81.7408L79.0254 269.705V274.797H77.1747V266.613H79.0254L81.7408 271.706V266.613H83.5862Z" fill="#013D79"/>
<path d="M91.8116 272.026H93.657C93.6324 272.595 93.4882 273.098 93.2246 273.532C92.961 273.967 92.5954 274.306 92.1279 274.55C91.6639 274.789 91.1156 274.909 90.4828 274.909C89.9696 274.909 89.5109 274.817 89.1067 274.634C88.706 274.45 88.365 274.186 88.0838 273.841C87.8061 273.497 87.5934 273.079 87.4458 272.588C87.3017 272.097 87.2296 271.544 87.2296 270.93V270.486C87.2296 269.871 87.3052 269.319 87.4564 268.828C87.611 268.333 87.829 267.914 88.1102 267.569C88.3949 267.22 88.7358 266.954 89.1331 266.771C89.5303 266.587 89.9714 266.495 90.4565 266.495C91.1244 266.495 91.6885 266.623 92.149 266.878C92.6095 267.132 92.9663 267.483 93.2193 267.929C93.4724 268.371 93.6218 268.875 93.6675 269.441H91.8221C91.8151 269.133 91.7659 268.877 91.6745 268.671C91.5831 268.461 91.439 268.303 91.2421 268.198C91.0453 268.094 90.7834 268.041 90.4565 268.041C90.228 268.041 90.0294 268.086 89.8607 268.176C89.692 268.266 89.5513 268.408 89.4389 268.603C89.3264 268.798 89.242 269.051 89.1858 269.362C89.1331 269.669 89.1067 270.04 89.1067 270.475V270.93C89.1067 271.365 89.1313 271.736 89.1805 272.043C89.2297 272.35 89.3088 272.601 89.4178 272.796C89.5267 272.991 89.6673 273.135 89.8396 273.229C90.0153 273.319 90.2298 273.364 90.4828 273.364C90.7641 273.364 91.0013 273.317 91.1947 273.223C91.388 273.126 91.5374 272.98 91.6428 272.785C91.7483 272.586 91.8045 272.333 91.8116 272.026Z" fill="#013D79"/>
<path d="M101.54 266.158H102.62C102.62 266.724 102.555 267.207 102.425 267.608C102.299 268.009 102.072 268.316 101.745 268.53C101.418 268.74 100.958 268.845 100.364 268.845V267.923C100.747 267.923 101.019 267.852 101.181 267.709C101.346 267.567 101.446 267.365 101.482 267.102C101.52 266.836 101.54 266.522 101.54 266.158ZM98.6976 266.613H100.548V271.958C100.548 272.595 100.424 273.135 100.174 273.577C99.9244 274.016 99.5746 274.347 99.1247 274.572C98.6748 274.797 98.1457 274.909 97.5376 274.909C96.9365 274.909 96.4075 274.797 95.9506 274.572C95.4971 274.347 95.1421 274.016 94.8855 273.577C94.6324 273.135 94.5059 272.595 94.5059 271.958V266.613H96.3618V271.958C96.3618 272.296 96.4075 272.571 96.4989 272.785C96.5903 272.995 96.7239 273.148 96.8996 273.246C97.0754 273.343 97.2881 273.392 97.5376 273.392C97.7907 273.392 98.0034 273.343 98.1756 273.246C98.3479 273.148 98.4779 272.995 98.5658 272.785C98.6537 272.571 98.6976 272.296 98.6976 271.958V266.613ZM96.9629 266.119L98.0069 264.354H99.8839L98.4129 266.119H96.9629Z" fill="#013D79"/>
<path d="M106.48 266.613H108.331V271.958C108.331 272.595 108.206 273.135 107.956 273.577C107.707 274.016 107.357 274.347 106.907 274.572C106.457 274.797 105.928 274.909 105.32 274.909C104.719 274.909 104.19 274.797 103.733 274.572C103.28 274.347 102.924 274.016 102.668 273.577C102.415 273.135 102.288 272.595 102.288 271.958V266.613H104.144V271.958C104.144 272.296 104.19 272.571 104.281 272.785C104.373 272.995 104.506 273.148 104.682 273.246C104.858 273.343 105.07 273.392 105.32 273.392C105.573 273.392 105.786 273.343 105.958 273.246C106.13 273.148 106.26 272.995 106.348 272.785C106.436 272.571 106.48 272.296 106.48 271.958V266.613Z" fill="#013D79"/>
<path d="M115.248 272.02H113.34V270.497H115.248C115.509 270.497 115.719 270.45 115.881 270.357C116.043 270.263 116.161 270.134 116.234 269.969C116.312 269.8 116.35 269.611 116.35 269.401C116.35 269.176 116.312 268.968 116.234 268.777C116.161 268.586 116.043 268.433 115.881 268.316C115.719 268.197 115.509 268.137 115.248 268.137H114.036V274.797H112.185V266.613H115.248C115.864 266.613 116.393 266.733 116.835 266.973C117.282 267.213 117.625 267.543 117.864 267.962C118.103 268.378 118.222 268.854 118.222 269.39C118.222 269.918 118.103 270.379 117.864 270.773C117.625 271.166 117.282 271.473 116.835 271.694C116.393 271.912 115.864 272.02 115.248 272.02Z" fill="#013D79"/>
<path d="M124.391 269.862V271.38H120.452V269.862H124.391ZM121.069 266.613V274.797H119.219V266.613H121.069ZM125.635 266.613V274.797H123.79V266.613H125.635Z" fill="#013D79"/>
<path d="M130.159 268.333L128.288 274.797H126.3L129.121 266.613H130.381L130.159 268.333ZM131.71 274.797L129.832 268.333L129.59 266.613H130.866L133.703 274.797H131.71ZM131.636 271.745V273.268H127.697V271.745H131.636ZM129.194 266.186L130.238 264.422H132.116L130.644 266.186H129.194Z" fill="#013D79"/>
<path d="M137.33 272.02H135.421V270.497H137.33C137.59 270.497 137.801 270.45 137.963 270.357C138.125 270.263 138.242 270.134 138.316 269.969C138.393 269.8 138.432 269.611 138.432 269.401C138.432 269.176 138.393 268.968 138.316 268.777C138.242 268.586 138.125 268.433 137.963 268.316C137.801 268.197 137.59 268.137 137.33 268.137H136.117V274.797H134.267V266.613H137.33C137.945 266.613 138.474 266.733 138.917 266.973C139.364 267.213 139.706 267.543 139.945 267.962C140.184 268.378 140.304 268.854 140.304 269.39C140.304 269.918 140.184 270.379 139.945 270.773C139.706 271.166 139.364 271.473 138.917 271.694C138.474 271.912 137.945 272.02 137.33 272.02Z" fill="#013D79"/>
<path d="M149.062 273.279V274.797H145.181V273.279H149.062ZM145.84 266.613V274.797H143.989V266.613H145.84Z" fill="#013D79"/>
<path d="M153.881 266.613H155.732V271.958C155.732 272.595 155.607 273.135 155.357 273.577C155.108 274.016 154.758 274.347 154.308 274.572C153.858 274.797 153.329 274.909 152.721 274.909C152.12 274.909 151.591 274.797 151.134 274.572C150.68 274.347 150.325 274.016 150.069 273.577C149.816 273.135 149.689 272.595 149.689 271.958V266.613H151.545V271.958C151.545 272.296 151.591 272.571 151.682 272.785C151.774 272.995 151.907 273.148 152.083 273.246C152.259 273.343 152.471 273.392 152.721 273.392C152.974 273.392 153.187 273.343 153.359 273.246C153.531 273.148 153.661 272.995 153.749 272.785C153.837 272.571 153.881 272.296 153.881 271.958V266.613Z" fill="#013D79"/>
<path d="M160.034 268.333L158.162 274.797H156.175L158.995 266.613H160.256L160.034 268.333ZM161.584 274.797L159.707 268.333L159.465 266.613H160.741L163.577 274.797H161.584ZM161.51 271.745V273.268H157.572V271.745H161.51ZM160.393 264.422L162.122 266.001V266.074H160.725L159.881 265.31L159.048 266.074H157.677V265.978L159.375 264.422H160.393ZM158.922 276.039C158.922 275.799 159.013 275.599 159.196 275.438C159.379 275.28 159.616 275.201 159.908 275.201C160.199 275.201 160.437 275.28 160.619 275.438C160.802 275.599 160.894 275.799 160.894 276.039C160.894 276.279 160.802 276.477 160.619 276.635C160.437 276.796 160.199 276.876 159.908 276.876C159.616 276.876 159.379 276.796 159.196 276.635C159.013 276.477 158.922 276.279 158.922 276.039Z" fill="#013D79"/>
<path d="M167.226 266.613V274.797H165.375V266.613H167.226ZM169.535 266.613V268.137H163.119V266.613H169.535Z" fill="#013D79"/>
<path d="M175.599 272.869L177.197 266.613H179.269L176.68 274.797H175.341L175.599 272.869ZM174.149 266.613L175.747 272.869L176.015 274.797H174.66L172.087 266.613H174.149Z" fill="#013D79"/>
<path d="M182.685 268.333L180.814 274.797H178.826L181.647 266.613H182.907L182.685 268.333ZM184.235 274.797L182.358 268.333L182.116 266.613H183.392L186.229 274.797H184.235ZM184.162 271.745V273.268H180.223V271.745H184.162ZM182.327 264.422L183.376 266.186H181.937L180.45 264.422H182.327Z" fill="#013D79"/>
<path d="M191.332 266.613V274.797H189.482V266.613H191.332ZM195.914 266.613L192.941 270.761L191.201 272.79L190.863 270.981L191.976 269.182L193.631 266.613H195.914ZM193.726 274.797L191.744 271.11L193.183 269.98L195.914 274.797H193.726Z" fill="#013D79"/>
<path d="M198.356 266.613V274.797H196.51V266.613H198.356Z" fill="#013D79"/>
<path d="M206.069 266.613V274.797H204.224L201.509 269.705V274.797H199.658V266.613H201.509L204.224 271.706V266.613H206.069Z" fill="#013D79"/>
<path d="M212.412 269.862V271.38H208.474V269.862H212.412ZM209.091 266.613V274.797H207.24V266.613H209.091ZM213.657 266.613V274.797H211.811V266.613H213.657Z" fill="#013D79"/>
<path d="M220.922 266.613V274.797H219.072V266.613H220.922ZM223.232 266.613V268.137H216.815V266.613H223.232Z" fill="#013D79"/>
<path d="M229.301 273.279V274.797H225.209V273.279H229.301ZM225.868 266.613V274.797H224.017V266.613H225.868ZM228.773 269.862V271.329H225.209V269.862H228.773ZM229.316 266.613V268.137H225.209V266.613H229.316ZM224.903 266.209L226.374 264.984H227.239L228.721 266.209H227.566L226.807 265.557L226.053 266.209H224.903ZM228.336 265.546L229.258 264H230.529L229.264 265.546H228.336Z" fill="#013D79"/>
<path d="M236.002 268.333L234.13 274.797H232.143L234.963 266.613H236.224L236.002 268.333ZM237.552 274.797L235.675 268.333L235.433 266.613H236.709L239.545 274.797H237.552ZM237.479 271.745V273.268H233.54V271.745H237.479Z" fill="#013D79"/>
<path d="M244.064 272.622C244.064 272.494 244.046 272.38 244.011 272.279C243.976 272.174 243.911 272.077 243.816 271.987C243.721 271.897 243.584 271.807 243.405 271.717C243.229 271.623 242.997 271.526 242.709 271.425C242.372 271.305 242.046 271.17 241.734 271.02C241.421 270.866 241.141 270.688 240.895 270.486C240.649 270.28 240.454 270.04 240.31 269.767C240.166 269.489 240.094 269.167 240.094 268.8C240.094 268.448 240.168 268.131 240.315 267.85C240.463 267.565 240.668 267.324 240.932 267.125C241.199 266.923 241.512 266.769 241.871 266.664C242.229 266.555 242.621 266.501 243.046 266.501C243.609 266.501 244.104 266.606 244.533 266.816C244.966 267.022 245.303 267.316 245.546 267.698C245.792 268.077 245.915 268.524 245.915 269.042H244.075C244.075 268.835 244.034 268.654 243.953 268.496C243.876 268.339 243.758 268.215 243.6 268.125C243.442 268.035 243.243 267.99 243.004 267.99C242.772 267.99 242.577 268.028 242.419 268.103C242.261 268.178 242.141 268.279 242.06 268.406C241.98 268.53 241.939 268.667 241.939 268.817C241.939 268.94 241.971 269.053 242.034 269.154C242.101 269.251 242.194 269.343 242.314 269.429C242.437 269.515 242.584 269.598 242.756 269.677C242.932 269.755 243.129 269.832 243.347 269.907C243.755 270.046 244.117 270.201 244.433 270.374C244.753 270.542 245.022 270.735 245.24 270.952C245.461 271.166 245.628 271.41 245.741 271.683C245.857 271.957 245.915 272.266 245.915 272.61C245.915 272.978 245.848 273.304 245.714 273.588C245.581 273.873 245.389 274.115 245.14 274.313C244.89 274.508 244.591 274.656 244.243 274.757C243.895 274.859 243.507 274.909 243.078 274.909C242.684 274.909 242.296 274.857 241.913 274.752C241.533 274.643 241.189 274.478 240.879 274.257C240.57 274.032 240.322 273.746 240.136 273.397C239.953 273.045 239.862 272.627 239.862 272.144H241.718C241.718 272.384 241.748 272.586 241.807 272.751C241.867 272.916 241.955 273.049 242.071 273.15C242.187 273.247 242.329 273.319 242.498 273.364C242.667 273.405 242.86 273.425 243.078 273.425C243.314 273.425 243.503 273.39 243.647 273.319C243.792 273.244 243.897 273.146 243.964 273.026C244.031 272.903 244.064 272.768 244.064 272.622Z" fill="#013D79"/>
<path d="M252.152 273.279V274.797H248.061V273.279H252.152ZM248.72 266.613V274.797H246.869V266.613H248.72ZM251.625 269.862V271.329H248.061V269.862H251.625ZM252.168 266.613V268.137H248.061V266.613H252.168Z" fill="#013D79"/>
<path d="M256.165 268.333L254.293 274.797H252.305L255.126 266.613H256.386L256.165 268.333ZM257.715 274.797L255.838 268.333L255.595 266.613H256.871L259.708 274.797H257.715ZM257.641 271.745V273.268H253.702V271.745H257.641Z" fill="#013D79"/>
<path d="M266.684 266.613V274.797H264.838L262.123 269.705V274.797H260.272V266.613H262.123L264.838 271.706V266.613H266.684Z" fill="#013D79"/>
<path d="M269.489 273.369L269.478 274.572C269.478 275.025 269.373 275.473 269.162 275.915C268.954 276.357 268.7 276.719 268.397 277L267.496 276.55C267.569 276.378 267.65 276.204 267.738 276.028C267.826 275.855 267.902 275.66 267.965 275.443C268.028 275.226 268.06 274.971 268.06 274.679V273.369H269.489Z" fill="#013D79"/>
<path d="M278.626 269.862V271.38H274.687V269.862H278.626ZM275.304 266.613V274.797H273.454V266.613H275.304ZM279.87 266.613V274.797H278.025V266.613H279.87Z" fill="#013D79"/>
<path d="M287.542 270.542V270.874C287.542 271.499 287.46 272.062 287.294 272.56C287.133 273.054 286.902 273.478 286.604 273.83C286.305 274.179 285.952 274.446 285.544 274.634C285.136 274.817 284.686 274.909 284.194 274.909C283.698 274.909 283.245 274.817 282.834 274.634C282.426 274.446 282.071 274.179 281.769 273.83C281.47 273.478 281.238 273.054 281.073 272.56C280.911 272.062 280.83 271.499 280.83 270.874V270.542C280.83 269.916 280.911 269.354 281.073 268.856C281.238 268.358 281.468 267.934 281.763 267.586C282.062 267.234 282.415 266.966 282.823 266.782C283.234 266.595 283.688 266.501 284.183 266.501C284.676 266.501 285.126 266.595 285.533 266.782C285.945 266.966 286.3 267.234 286.598 267.586C286.897 267.934 287.129 268.358 287.294 268.856C287.46 269.354 287.542 269.916 287.542 270.542ZM285.665 270.874V270.531C285.665 270.126 285.632 269.77 285.565 269.463C285.502 269.152 285.407 268.892 285.28 268.682C285.154 268.472 284.997 268.315 284.811 268.21C284.628 268.101 284.419 268.047 284.183 268.047C283.937 268.047 283.723 268.101 283.54 268.21C283.357 268.315 283.205 268.472 283.081 268.682C282.958 268.892 282.865 269.152 282.802 269.463C282.742 269.77 282.712 270.126 282.712 270.531V270.874C282.712 271.275 282.742 271.631 282.802 271.942C282.865 272.249 282.958 272.509 283.081 272.723C283.208 272.936 283.363 273.098 283.545 273.206C283.732 273.315 283.948 273.369 284.194 273.369C284.43 273.369 284.639 273.315 284.821 273.206C285.004 273.098 285.157 272.936 285.28 272.723C285.407 272.509 285.502 272.249 285.565 271.942C285.632 271.631 285.665 271.275 285.665 270.874ZM284.684 264.422L286.414 266.001V266.074H285.017L284.173 265.31L283.34 266.074H281.969V265.978L283.667 264.422H284.684ZM283.24 276.089C283.24 275.85 283.331 275.649 283.514 275.488C283.697 275.331 283.934 275.252 284.226 275.252C284.517 275.252 284.755 275.331 284.937 275.488C285.12 275.649 285.212 275.85 285.212 276.089C285.212 276.329 285.12 276.528 284.937 276.685C284.755 276.846 284.517 276.927 284.226 276.927C283.934 276.927 283.697 276.846 283.514 276.685C283.331 276.528 283.24 276.329 283.24 276.089Z" fill="#013D79"/>
<path d="M290.468 266.613V274.797H288.623V266.613H290.468Z" fill="#013D79"/>
<path d="M299.532 273.279V274.797H295.651V273.279H299.532ZM296.311 266.613V274.797H294.46V266.613H296.311Z" fill="#013D79"/>
<path d="M304.351 266.613H306.202V271.958C306.202 272.595 306.077 273.135 305.828 273.577C305.578 274.016 305.228 274.347 304.778 274.572C304.328 274.797 303.799 274.909 303.191 274.909C302.59 274.909 302.061 274.797 301.604 274.572C301.151 274.347 300.796 274.016 300.539 273.577C300.286 273.135 300.16 272.595 300.16 271.958V266.613H302.015V271.958C302.015 272.296 302.061 272.571 302.153 272.785C302.244 272.995 302.378 273.148 302.553 273.246C302.729 273.343 302.942 273.392 303.191 273.392C303.444 273.392 303.657 273.343 303.829 273.246C304.002 273.148 304.132 272.995 304.219 272.785C304.307 272.571 304.351 272.296 304.351 271.958V266.613Z" fill="#013D79"/>
<path d="M310.504 268.333L308.633 274.797H306.645L309.466 266.613H310.726L310.504 268.333ZM312.055 274.797L310.178 268.333L309.935 266.613H311.211L314.048 274.797H312.055ZM311.981 271.745V273.268H308.042V271.745H311.981ZM310.863 264.422L312.592 266.001V266.074H311.195L310.352 265.31L309.518 266.074H308.148V265.978L309.845 264.422H310.863ZM309.392 276.039C309.392 275.799 309.483 275.599 309.666 275.438C309.849 275.28 310.086 275.201 310.378 275.201C310.67 275.201 310.907 275.28 311.09 275.438C311.272 275.599 311.364 275.799 311.364 276.039C311.364 276.279 311.272 276.477 311.09 276.635C310.907 276.796 310.67 276.876 310.378 276.876C310.086 276.876 309.849 276.796 309.666 276.635C309.483 276.477 309.392 276.279 309.392 276.039Z" fill="#013D79"/>
<path d="M317.696 266.613V274.797H315.846V266.613H317.696ZM320.006 266.613V268.137H313.589V266.613H320.006Z" fill="#013D79"/>
<path d="M329.444 270.424V273.785C329.314 273.939 329.113 274.104 328.843 274.28C328.575 274.452 328.238 274.6 327.83 274.724C327.423 274.847 326.943 274.909 326.391 274.909C325.881 274.909 325.419 274.823 325.004 274.651C324.589 274.475 324.233 274.218 323.934 273.881C323.639 273.54 323.41 273.124 323.248 272.633C323.09 272.138 323.011 271.573 323.011 270.936V270.48C323.011 269.843 323.092 269.278 323.254 268.783C323.415 268.288 323.642 267.872 323.934 267.535C324.229 267.194 324.575 266.936 324.973 266.76C325.373 266.584 325.813 266.495 326.291 266.495C326.997 266.495 327.572 266.615 328.015 266.855C328.458 267.091 328.793 267.419 329.022 267.839C329.25 268.255 329.389 268.736 329.438 269.283H327.662C327.626 269.013 327.56 268.785 327.461 268.597C327.366 268.406 327.229 268.262 327.05 268.165C326.871 268.064 326.639 268.013 326.354 268.013C326.133 268.013 325.93 268.064 325.748 268.165C325.568 268.266 325.415 268.42 325.289 268.626C325.162 268.828 325.064 269.083 324.994 269.39C324.927 269.697 324.893 270.057 324.893 270.469V270.936C324.893 271.344 324.925 271.702 324.988 272.009C325.055 272.316 325.154 272.573 325.284 272.779C325.417 272.981 325.586 273.135 325.79 273.24C325.997 273.341 326.241 273.392 326.523 273.392C326.72 273.392 326.888 273.375 327.029 273.341C327.169 273.304 327.285 273.259 327.377 273.206C327.472 273.15 327.544 273.098 327.593 273.049V271.779H326.307V270.424H329.444Z" fill="#013D79"/>
<path d="M332.491 266.613V274.797H330.646V266.613H332.491Z" fill="#013D79"/>
<path d="M337.142 268.333L335.27 274.797H333.282L336.103 266.613H337.363L337.142 268.333ZM338.692 274.797L336.815 268.333L336.572 266.613H337.848L340.685 274.797H338.692ZM338.618 271.745V273.268H334.679V271.745H338.618Z" fill="#013D79"/>
<path d="M346.843 272.869L348.441 266.613H350.513L347.924 274.797H346.585L346.843 272.869ZM345.393 266.613L346.991 272.869L347.26 274.797H345.905L343.332 266.613H345.393Z" fill="#013D79"/>
<path d="M353.044 266.613V274.797H351.199V266.613H353.044Z" fill="#013D79"/>
<path d="M359.63 273.279V274.797H355.538V273.279H359.63ZM356.197 266.613V274.797H354.346V266.613H356.197ZM359.102 269.862V271.329H355.538V269.862H359.102ZM359.645 266.613V268.137H355.538V266.613H359.645ZM357.668 264.422L359.398 266.001V266.074H358L357.157 265.31L356.324 266.074H354.953V265.978L356.65 264.422H357.668ZM356.202 276.033C356.202 275.793 356.294 275.593 356.476 275.432C356.659 275.275 356.897 275.196 357.188 275.196C357.48 275.196 357.717 275.275 357.9 275.432C358.083 275.593 358.174 275.793 358.174 276.033C358.174 276.273 358.083 276.472 357.9 276.629C357.717 276.79 357.48 276.871 357.188 276.871C356.897 276.871 356.659 276.79 356.476 276.629C356.294 276.472 356.202 276.273 356.202 276.033Z" fill="#013D79"/>
<path d="M364.211 266.613V274.797H362.361V266.613H364.211ZM366.521 266.613V268.137H360.104V266.613H366.521Z" fill="#013D79"/>
<path d="M376.091 266.613V274.797H374.245L371.53 269.705V274.797H369.679V266.613H371.53L374.245 271.706V266.613H376.091Z" fill="#013D79"/>
<path d="M380.609 268.333L378.738 274.797H376.75L379.571 266.613H380.831L380.609 268.333ZM382.159 274.797L380.282 268.333L380.04 266.613H381.316L384.153 274.797H382.159ZM382.086 271.745V273.268H378.147V271.745H382.086Z" fill="#013D79"/>
<path d="M385.634 266.613H387.142L388.856 272.307L390.569 266.613H392.077L389.467 274.797H388.244L385.634 266.613ZM384.717 266.613H386.277L386.567 272.886V274.797H384.717V266.613ZM391.434 266.613H393V274.797H391.144V272.886L391.434 266.613Z" fill="#013D79"/>
<path d="M86.4347 219.168H71.2103V200.803H86.4347C88.5095 200.803 90.1917 200.238 91.4814 199.109C92.7712 197.979 93.7104 196.421 94.2992 194.433C94.916 192.4 95.2244 190.119 95.2244 187.589C95.2244 184.878 94.916 182.371 94.2992 180.066C93.7104 177.762 92.7712 175.91 91.4814 174.51C90.1917 173.064 88.5095 172.341 86.4347 172.341H76.7617V252.645H62V153.976H86.4347C91.3412 153.976 95.5609 155.422 99.0936 158.313C102.654 161.205 105.388 165.18 107.295 170.24C109.201 175.255 110.154 180.993 110.154 187.453C110.154 193.823 109.201 199.38 107.295 204.124C105.388 208.867 102.654 212.572 99.0936 215.237C95.5609 217.858 91.3412 219.168 86.4347 219.168Z" fill="#013D79"/>
<path d="M125.678 153.976L126.141 252.645H111.968V153.976H125.678ZM124.459 213.475L121.136 213.611C121.136 208.461 121.529 203.717 122.314 199.38C123.099 195.043 124.22 191.271 125.678 188.063C127.136 184.855 128.888 182.371 130.935 180.609C132.982 178.847 135.253 177.966 137.748 177.966C139.991 177.966 142.038 178.485 143.889 179.524C145.767 180.563 147.379 182.235 148.725 184.539C150.099 186.843 151.15 189.847 151.879 193.552C152.636 197.257 153.015 201.774 153.015 207.105V252.645H138.758V206.97C138.758 203.988 138.491 201.684 137.959 200.058C137.454 198.386 136.725 197.234 135.772 196.602C134.818 195.924 133.655 195.585 132.281 195.585C130.627 195.585 129.281 196.037 128.244 196.94C127.206 197.844 126.407 199.109 125.846 200.735C125.314 202.317 124.949 204.191 124.753 206.36C124.557 208.528 124.459 210.9 124.459 213.475Z" fill="#013D79"/>
<path d="M179.347 234.212V203.988C179.347 201.91 179.165 200.125 178.8 198.635C178.436 197.144 177.861 195.992 177.076 195.178C176.291 194.32 175.24 193.891 173.922 193.891C172.856 193.891 171.945 194.185 171.188 194.772C170.431 195.359 169.856 196.24 169.464 197.415C169.071 198.589 168.875 200.08 168.875 201.887H154.702C154.702 198.499 155.165 195.359 156.09 192.468C157.043 189.531 158.389 186.979 160.127 184.81C161.894 182.642 163.996 180.97 166.436 179.795C168.903 178.576 171.651 177.966 174.679 177.966C178.296 177.966 181.52 178.937 184.352 180.88C187.212 182.822 189.469 185.736 191.123 189.622C192.777 193.462 193.604 198.296 193.604 204.124V234.144C193.604 238.933 193.772 242.57 194.109 245.055C194.445 247.494 194.922 249.64 195.539 251.493V252.645H181.324C180.651 250.386 180.146 247.63 179.81 244.377C179.501 241.079 179.347 237.691 179.347 234.212ZM181.071 207.851L181.155 220.049H174.889C173.571 220.049 172.45 220.342 171.525 220.93C170.627 221.517 169.898 222.33 169.338 223.369C168.805 224.363 168.412 225.493 168.16 226.758C167.936 228.023 167.824 229.355 167.824 230.756C167.824 232.111 168.02 233.331 168.412 234.415C168.833 235.454 169.394 236.268 170.095 236.855C170.796 237.442 171.581 237.736 172.45 237.736C174.02 237.736 175.352 237.262 176.445 236.313C177.567 235.319 178.422 234.122 179.011 232.721C179.599 231.321 179.894 230.01 179.894 228.791L183.006 238.143C182.445 239.95 181.8 241.779 181.071 243.632C180.37 245.484 179.487 247.201 178.422 248.782C177.384 250.318 176.109 251.583 174.595 252.577C173.081 253.526 171.244 254 169.085 254C166.282 254 163.702 253.074 161.347 251.221C159.02 249.369 157.155 246.794 155.753 243.496C154.352 240.153 153.651 236.313 153.651 231.976C153.651 228.181 154.071 224.792 154.912 221.811C155.781 218.829 157.085 216.299 158.824 214.221C160.562 212.143 162.777 210.561 165.468 209.477C168.16 208.393 171.328 207.851 174.973 207.851H181.071ZM172.188 175.5L174.922 166.5H183L178.076 175.5H172.188Z" fill="#013D79"/>
<path d="M220.273 179.321V195.178H192.852V179.321H220.273ZM198.614 161.092H212.787V228.723C212.787 230.666 212.927 232.179 213.207 233.263C213.488 234.302 213.964 235.048 214.637 235.5C215.338 235.906 216.263 236.109 217.413 236.109C218.226 236.109 218.899 236.087 219.432 236.042C219.964 235.951 220.469 235.838 220.946 235.703V252.035C219.74 252.667 218.478 253.142 217.161 253.458C215.843 253.819 214.441 254 212.955 254C209.927 254 207.333 253.232 205.175 251.696C203.044 250.16 201.418 247.743 200.296 244.445C199.175 241.147 198.614 236.855 198.614 231.569V161.092Z" fill="#013D79"/>
<path d="M260.993 179.321V195.178H233.573V179.321H260.993ZM239.334 161.092H253.507V228.723C253.507 230.666 253.647 232.179 253.928 233.263C254.208 234.302 254.685 235.048 255.358 235.5C256.059 235.906 256.984 236.109 258.133 236.109C258.947 236.109 259.619 236.087 260.152 236.042C260.685 235.951 260.523 236.177 261 236.042V252C259.794 252.632 259.199 253.142 257.881 253.458C256.563 253.819 255.162 254 253.676 254C250.647 254 248.054 253.232 245.895 251.696C243.764 250.16 242.138 247.743 241.017 244.445C239.895 241.147 239.334 236.855 239.334 231.569V161.092Z" fill="#013D79"/>
<path d="M275.76 197.483V252.645H261.587V179.321H274.835L275.76 197.483ZM289.218 178.779L288.966 199.99C288.405 199.9 287.648 199.787 286.695 199.651C285.741 199.516 284.942 199.448 284.298 199.448C282.643 199.448 281.213 199.764 280.008 200.396C278.83 200.984 277.849 201.887 277.064 203.107C276.307 204.282 275.746 205.773 275.382 207.58C275.045 209.387 274.891 211.488 274.919 213.882L272.354 211.171C272.354 206.247 272.648 201.774 273.237 197.754C273.854 193.688 274.723 190.186 275.844 187.25C276.966 184.268 278.326 181.987 279.924 180.405C281.522 178.779 283.316 177.966 285.307 177.966C286.008 177.966 286.695 178.033 287.368 178.169C288.069 178.305 288.685 178.508 289.218 178.779Z" fill="#013D79"/>
<path d="M303.901 179.321V252.645H289.686V179.321H303.901Z" fill="#013D79"/>
<path d="M329.518 254C325.817 254 322.509 253.074 319.593 251.221C316.677 249.324 314.21 246.726 312.191 243.428C310.2 240.13 308.672 236.335 307.607 232.044C306.569 227.752 306.051 223.211 306.051 218.422V215.847C306.051 210.471 306.513 205.502 307.439 200.939C308.364 196.33 309.738 192.31 311.56 188.876C313.382 185.443 315.668 182.777 318.415 180.88C321.163 178.937 324.359 177.966 328.004 177.966C331.228 177.966 334.116 178.802 336.668 180.473C339.219 182.145 341.378 184.539 343.144 187.656C344.939 190.774 346.299 194.546 347.224 198.973C348.177 203.401 348.654 208.37 348.654 213.882V223.166H311.476V208.867H334.817V207.105C334.845 204.666 334.579 202.588 334.018 200.871C333.485 199.154 332.7 197.844 331.663 196.94C330.626 196.037 329.364 195.585 327.878 195.585C326.336 195.585 325.06 196.127 324.051 197.211C323.069 198.296 322.298 199.787 321.738 201.684C321.205 203.536 320.826 205.682 320.602 208.122C320.378 210.561 320.266 213.137 320.266 215.847V218.422C320.266 221.133 320.49 223.595 320.939 225.809C321.415 228.023 322.088 229.92 322.957 231.501C323.855 233.037 324.92 234.235 326.154 235.093C327.415 235.951 328.845 236.381 330.443 236.381C332.378 236.381 334.284 235.793 336.163 234.619C338.041 233.444 339.654 231.501 340.999 228.791L347.434 241.124C346.509 243.248 345.191 245.303 343.481 247.291C341.798 249.279 339.78 250.905 337.425 252.17C335.07 253.39 332.434 254 329.518 254Z" fill="#013D79"/>
<path d="M363.168 194.975V252.645H348.995V179.321H362.285L363.168 194.975ZM361.486 213.475L358.163 213.611C358.163 208.009 358.584 203.017 359.425 198.635C360.266 194.207 361.458 190.457 363 187.385C364.542 184.313 366.378 181.987 368.509 180.405C370.668 178.779 373.065 177.966 375.701 177.966C377.804 177.966 379.724 178.463 381.463 179.457C383.229 180.45 384.743 182.054 386.005 184.268C387.294 186.482 388.276 189.418 388.949 193.078C389.65 196.692 390 201.164 390 206.495V252.645H375.743V206.428C375.743 203.491 375.491 201.255 374.986 199.719C374.481 198.138 373.752 197.053 372.799 196.466C371.846 195.879 370.682 195.585 369.308 195.585C367.85 195.585 366.617 196.037 365.607 196.94C364.598 197.844 363.785 199.109 363.168 200.735C362.579 202.317 362.145 204.191 361.864 206.36C361.612 208.528 361.486 210.9 361.486 213.475Z" fill="#013D79"/>
<path d="M289.5 170H304V177H289.5V170Z" fill="#013D79"/>
<path d="M331 168.774L335 176.5H330.5L328 173.084L326 176.5H321.5L325.5 168.774H331ZM343.756 176.621H339.308L338.785 172.311C339.5 172.257 340.076 172.148 340.512 171.986C340.948 171.823 341.27 171.593 341.48 171.295C341.689 170.996 341.794 170.631 341.794 170.197C341.794 169.573 341.663 169.099 341.401 168.774C341.157 168.448 340.808 168.218 340.355 168.082C339.919 167.947 339.404 167.879 338.811 167.879L339.02 163C340.329 163 341.48 163.149 342.474 163.447C343.468 163.745 344.297 164.193 344.959 164.789C345.64 165.358 346.145 166.049 346.477 166.863C346.826 167.676 347 168.611 347 169.668C347 171.186 346.66 172.325 345.98 173.084C345.3 173.843 344.558 174.317 343.756 174.507V176.621Z" fill="#013D79"/>
<path d="M22.7907 180.24L33.5698 173.67C35.0116 172.762 35.8953 171.911 36.2209 171.116C36.5698 170.299 36.7442 169.505 36.7442 168.733C36.7442 167.802 36.3953 166.929 35.6977 166.111C35.0233 165.272 34.0698 164.852 32.8372 164.852C31.9302 164.852 31.1628 165.056 30.5349 165.465C29.9302 165.85 29.4651 166.372 29.1395 167.031C28.8372 167.689 28.686 168.427 28.686 169.244C28.686 170.265 28.9767 171.298 29.5581 172.342C30.1395 173.386 30.907 174.487 31.8605 175.644C32.8372 176.802 33.9186 178.073 35.1047 179.457L59 206.285H45.8837L26.4186 184.7C24.814 182.703 23.4186 180.864 22.2326 179.185C21.0698 177.505 20.1628 175.871 19.5116 174.282C18.8605 172.694 18.5349 171.059 18.5349 169.38C18.5349 166.77 19.1163 164.466 20.2791 162.469C21.4651 160.449 23.1279 158.871 25.2674 157.736C27.4302 156.579 29.9651 156 32.8721 156C35.5698 156 37.907 156.545 39.8837 157.634C41.8837 158.724 43.4302 160.176 44.5233 161.992C45.6163 163.785 46.1628 165.76 46.1628 167.916C46.1628 169.414 45.8721 170.832 45.2907 172.172C44.7093 173.511 43.907 174.736 42.8837 175.848C41.8837 176.961 40.7326 177.971 39.4302 178.879L27.7791 186.811C27.314 187.379 26.9302 187.957 26.6279 188.547C26.3488 189.115 26.1395 189.694 26 190.284C25.8837 190.874 25.8256 191.509 25.8256 192.19C25.8256 193.37 26.0814 194.415 26.593 195.322C27.1047 196.208 27.7791 196.9 28.6163 197.399C29.4767 197.899 30.407 198.148 31.407 198.148C33.2907 198.148 35.1047 197.751 36.8488 196.957C38.6163 196.14 40.1977 194.993 41.593 193.518C42.9884 192.043 44.093 190.284 44.907 188.241C45.7209 186.198 46.1279 183.951 46.1279 181.5H55.9651C55.9651 184.178 55.686 186.732 55.1279 189.16C54.593 191.566 53.6977 193.79 52.4419 195.833C51.2093 197.876 49.5465 199.669 47.4535 201.212C47.3372 201.28 47.1163 201.417 46.7907 201.621C46.4884 201.802 46.2674 201.927 46.1279 201.995C43.686 203.698 41.2791 204.957 38.907 205.774C36.5349 206.591 33.7674 207 30.6047 207C27.186 207 24.2326 206.399 21.7442 205.196C19.2791 203.993 17.3721 202.336 16.0233 200.225C14.6744 198.114 14 195.697 14 192.973C14 191.044 14.3721 189.364 15.1163 187.935C15.8605 186.482 16.8953 185.143 18.2209 183.917C19.5465 182.692 21.0698 181.466 22.7907 180.24Z" fill="#013D79"/>
<path d="M37.7142 112.997H21.6926V94.5323H37.7142C39.8976 94.5323 41.6679 93.9645 43.0252 92.8289C44.3824 91.6933 45.3709 90.1262 45.9905 88.1276C46.6396 86.0835 46.9642 83.7896 46.9642 81.2459C46.9642 78.5205 46.6396 75.9995 45.9905 73.6829C45.3709 71.3663 44.3824 69.5039 43.0252 68.0958C41.6679 66.6422 39.8976 65.9155 37.7142 65.9155H27.5347V146.656H12V47.4508H37.7142C42.8776 47.4508 47.3182 48.9044 51.0359 51.8115C54.7832 54.7186 57.66 58.7158 59.6663 63.8033C61.6727 68.8453 62.6759 74.6141 62.6759 81.1096C62.6759 87.5143 61.6727 93.1014 59.6663 97.8709C57.66 102.64 54.7832 106.365 51.0359 109.045C47.3182 111.68 42.8776 112.997 37.7142 112.997Z" fill="#E10B13"/>
<path d="M79.4994 47.4508V146.656H64.5843V47.4508H79.4994ZM77.7291 107.274L74.2327 107.41C74.2327 102.232 74.6458 97.4621 75.4719 93.1014C76.2981 88.7408 77.4783 84.9479 79.0126 81.7228C80.5469 78.4978 82.391 75.9995 84.5449 74.228C86.6988 72.4565 89.0888 71.5707 91.7148 71.5707C94.0752 71.5707 96.2291 72.0931 98.1765 73.1378C100.153 74.1825 101.85 75.8632 103.266 78.1798C104.712 80.4964 105.818 83.5171 106.586 87.2418C107.382 90.9665 107.781 95.5089 107.781 100.869V146.656H92.777V100.733C92.777 97.7346 92.4967 95.418 91.9361 93.7828C91.405 92.1021 90.6378 90.9438 89.6346 90.3079C88.6314 89.6265 87.407 89.2859 85.9612 89.2859C84.2203 89.2859 82.8041 89.7401 81.7124 90.6486C80.6207 91.557 79.7797 92.8289 79.1896 94.4641C78.629 96.054 78.2455 97.939 78.0389 100.119C77.8324 102.3 77.7291 104.684 77.7291 107.274Z" fill="#E10B13"/>
<path d="M135.492 128.123V97.7346C135.492 95.6451 135.3 93.8509 134.916 92.3519C134.533 90.853 133.928 89.6947 133.102 88.877C132.276 88.014 131.169 87.5825 129.782 87.5825C128.661 87.5825 127.702 87.8777 126.906 88.4682C126.109 89.0587 125.504 89.9445 125.091 91.1255C124.678 92.3065 124.471 93.8055 124.471 95.6224H109.556C109.556 92.2157 110.043 89.0587 111.017 86.1516C112.02 83.1991 113.436 80.6327 115.266 78.4524C117.124 76.272 119.337 74.5914 121.904 73.4103C124.501 72.1839 127.392 71.5707 130.579 71.5707C134.385 71.5707 137.778 72.5473 140.758 74.5005C143.768 76.4537 146.143 79.3835 147.884 83.29C149.625 87.151 150.495 92.0113 150.495 97.8709V128.055C150.495 132.87 150.672 136.526 151.026 139.025C151.38 141.477 151.882 143.635 152.531 145.497V146.656H137.572C136.864 144.385 136.333 141.614 135.979 138.343C135.654 135.027 135.492 131.621 135.492 128.123ZM137.306 101.618L137.395 113.883H130.8C129.414 113.883 128.233 114.178 127.26 114.768C126.315 115.359 125.548 116.177 124.958 117.221C124.398 118.221 123.984 119.356 123.719 120.628C123.483 121.9 123.365 123.24 123.365 124.648C123.365 126.011 123.571 127.237 123.984 128.327C124.427 129.372 125.017 130.19 125.755 130.78C126.492 131.371 127.319 131.666 128.233 131.666C129.886 131.666 131.287 131.189 132.438 130.235C133.618 129.236 134.518 128.032 135.138 126.624C135.757 125.216 136.067 123.899 136.067 122.672L139.342 132.075C138.752 133.892 138.073 135.731 137.306 137.594C136.569 139.456 135.639 141.182 134.518 142.772C133.426 144.316 132.084 145.588 130.49 146.588C128.897 147.541 126.965 148.018 124.693 148.018C121.742 148.018 119.028 147.087 116.549 145.225C114.1 143.363 112.138 140.773 110.663 137.457C109.187 134.096 108.45 130.235 108.45 125.874C108.45 122.059 108.892 118.652 109.778 115.654C110.692 112.656 112.064 110.113 113.894 108.023C115.723 105.934 118.054 104.344 120.886 103.254C123.719 102.163 127.053 101.618 130.889 101.618H137.306ZM125.091 68L128.233 59H137.306L130.889 68H125.091Z" fill="#E10B13"/>
<path d="M168.381 87.1055V162H154L153.466 72.9334H167.363L168.381 87.1055ZM197.769 108.909V110.34C197.769 115.7 197.37 120.673 196.574 125.261C195.777 129.849 194.597 133.846 193.033 137.253C191.469 140.66 189.522 143.317 187.191 145.225C184.889 147.087 182.219 148.018 179.18 148.018C176.318 148.018 173.854 147.042 171.789 145.089C169.724 143.135 167.997 140.433 166.611 136.981C165.224 133.528 164.103 129.577 163.247 125.125C162.391 120.673 161.713 115.972 161.211 111.021V109.181C161.713 103.867 162.391 98.9384 163.247 94.396C164.103 89.8082 165.224 85.811 166.611 82.4042C167.997 78.9974 169.709 76.3402 171.745 74.4324C173.81 72.5246 176.274 71.5707 179.136 71.5707C182.175 71.5707 184.845 72.4565 187.147 74.228C189.478 75.9995 191.425 78.5432 192.989 81.8591C194.582 85.1296 195.777 89.0587 196.574 93.6465C197.37 98.2343 197.769 103.322 197.769 108.909ZM182.854 110.34V108.909C182.854 106.047 182.721 103.435 182.455 101.073C182.19 98.6658 181.762 96.5763 181.172 94.8048C180.611 93.0333 179.859 91.6706 178.915 90.7167C177.97 89.7628 176.805 89.2859 175.418 89.2859C173.825 89.2859 172.482 89.672 171.391 90.4442C170.328 91.1709 169.473 92.3065 168.824 93.8509C168.204 95.3499 167.761 97.235 167.496 99.5061C167.26 101.732 167.157 104.344 167.186 107.342V112.929C167.127 116.381 167.348 119.424 167.85 122.059C168.352 124.648 169.222 126.669 170.461 128.123C171.7 129.577 173.382 130.303 175.507 130.303C176.923 130.303 178.103 129.804 179.047 128.804C179.991 127.76 180.744 126.329 181.305 124.512C181.865 122.649 182.263 120.515 182.499 118.107C182.736 115.7 182.854 113.11 182.854 110.34Z" fill="#E10B13"/>
<path d="M231.858 42V146.656H216.899V42H231.858Z" fill="#E10B13"/>
<path d="M263.597 128.736V72.9334H278.556V146.656H264.571L263.597 128.736ZM265.013 113.746L268.908 113.61C268.908 118.561 268.524 123.149 267.757 127.373C266.99 131.552 265.854 135.186 264.349 138.275C262.874 141.364 261.045 143.771 258.861 145.497C256.707 147.178 254.214 148.018 251.382 148.018C249.021 148.018 246.852 147.519 244.876 146.519C242.928 145.475 241.246 143.862 239.83 141.682C238.414 139.456 237.307 136.617 236.511 133.165C235.744 129.667 235.36 125.488 235.36 120.628V72.9334H250.275V120.764C250.275 122.4 250.408 123.808 250.673 124.989C250.939 126.17 251.323 127.169 251.824 127.987C252.326 128.759 252.945 129.349 253.683 129.758C254.45 130.122 255.321 130.303 256.294 130.303C258.537 130.303 260.292 129.577 261.561 128.123C262.83 126.669 263.715 124.693 264.217 122.195C264.748 119.697 265.013 116.881 265.013 113.746Z" fill="#E10B13"/>
<path d="M306.223 128.123V97.7346C306.223 95.6451 306.031 93.8509 305.648 92.3519C305.264 90.853 304.659 89.6947 303.833 88.877C303.007 88.014 301.9 87.5825 300.514 87.5825C299.393 87.5825 298.434 87.8777 297.637 88.4682C296.84 89.0587 296.235 89.9445 295.822 91.1255C295.409 92.3065 295.203 93.8055 295.203 95.6224H280.288C280.288 92.2157 280.774 89.0587 281.748 86.1516C282.751 83.1991 284.168 80.6327 285.997 78.4524C287.856 76.272 290.069 74.5914 292.636 73.4103C295.232 72.1839 298.124 71.5707 301.31 71.5707C305.117 71.5707 308.51 72.5473 311.49 74.5005C314.499 76.4537 316.875 79.3835 318.615 83.29C320.356 87.151 321.227 92.0113 321.227 97.8709V128.055C321.227 132.87 321.404 136.526 321.758 139.025C322.112 141.477 322.613 143.635 323.263 145.497V146.656H308.303C307.595 144.385 307.064 141.614 306.71 138.343C306.385 135.027 306.223 131.621 306.223 128.123ZM308.038 101.618L308.126 113.883H301.532C300.145 113.883 298.965 114.178 297.991 114.768C297.047 115.359 296.28 116.177 295.69 117.221C295.129 118.221 294.716 119.356 294.45 120.628C294.214 121.9 294.096 123.24 294.096 124.648C294.096 126.011 294.303 127.237 294.716 128.327C295.158 129.372 295.749 130.19 296.486 130.78C297.224 131.371 298.05 131.666 298.965 131.666C300.617 131.666 302.019 131.189 303.169 130.235C304.349 129.236 305.249 128.032 305.869 126.624C306.489 125.216 306.798 123.899 306.798 122.672L310.074 132.075C309.483 133.892 308.805 135.731 308.038 137.594C307.3 139.456 306.371 141.182 305.249 142.772C304.158 144.316 302.815 145.588 301.222 146.588C299.629 147.541 297.696 148.018 295.424 148.018C292.473 148.018 289.759 147.087 287.28 145.225C284.831 143.363 282.869 140.773 281.394 137.457C279.919 134.096 279.181 130.235 279.181 125.874C279.181 122.059 279.624 118.652 280.509 115.654C281.424 112.656 282.796 110.113 284.625 108.023C286.454 105.934 288.785 104.344 291.618 103.254C294.45 102.163 297.784 101.618 301.62 101.618H308.038ZM306 60L309 67V68H304.5L302 64.5L300 68H294.5V67L298 60H306Z" fill="#E10B13"/>
<path d="M348.5 72.9334V88.877H321.227V72.9334H348.5ZM326.499 54.605H341.414V122.604C341.414 124.557 341.561 126.079 341.856 127.169C342.152 128.214 342.653 128.963 343.361 129.418C344.099 129.826 345.073 130.031 346.282 130.031C347.138 130.031 347.846 130.008 348.407 129.963C348.967 129.872 349.498 129.758 350 129.622V146.043C348.731 146.678 347.403 147.155 346.017 147.473C344.63 147.837 343.155 148.018 341.591 148.018C338.404 148.018 335.675 147.246 333.403 145.702C331.161 144.157 329.449 141.727 328.269 138.411C327.089 135.095 326.499 130.78 326.499 125.466V54.605Z" fill="#E10B13"/>
<path d="M299 151H306V157H299V151Z" fill="#E10B13"/>
<path d="M48 40H56V46H48V40Z" fill="#013D79"/>
<path d="M12 66.9999H0L12 47.5V66.9999Z" fill="#E10B13"/>
</g>
<defs>
<clipPath id="clip0_2884_2">
<rect width="393" height="277" fill="white"/>
</clipPath>
</defs>
</svg>
