<svg width="15" height="15" viewBox="0 0 15 15" fill="none" xmlns="http://www.w3.org/2000/svg">
<g clip-path="url(#clip0_242_3776)">
<path d="M13.2553 11.2133L10.4403 9.76296C10.045 9.55802 9.55473 9.66837 9.28589 10.0152L8.25795 11.3394C7.24583 10.8034 6.48673 10.2832 5.60112 9.40037C4.65226 8.4545 4.14619 7.68203 3.64013 6.70463L4.95273 5.67993C5.30065 5.41193 5.41135 4.92323 5.20576 4.52912L3.75083 1.73879C3.4978 1.25009 2.86522 1.09244 2.40661 1.39197L0.619574 2.59007C0.208398 2.87384 -0.0288185 3.34677 0.0028104 3.83548C0.0344393 4.33994 0.0976971 4.98629 0.224213 5.4277C0.746089 7.4298 1.99543 9.49496 3.76665 11.2448C5.52205 12.9947 7.59374 14.2401 9.60218 14.7761C10.045 14.8864 10.6934 14.9495 11.2153 14.9968C11.7213 15.0283 12.2116 14.7919 12.4804 14.3662L13.6507 12.5533C13.9037 12.0804 13.7297 11.4655 13.2553 11.2133Z" fill="#152764"/>
<path d="M7.56147 5.8851C7.90939 5.97969 8.25731 6.16887 8.52615 6.45263C8.81081 6.73639 9.00059 7.06745 9.09547 7.41427C9.17455 7.69803 9.44339 7.88721 9.74386 7.87144H9.80712C10.2183 7.85568 10.5188 7.46156 10.4081 7.06745C10.2499 6.49992 9.94945 5.94816 9.49083 5.50675C9.03222 5.04958 8.49453 4.75005 7.92521 4.59241C7.52985 4.48206 7.13449 4.78158 7.11867 5.19146V5.25452C7.08704 5.53828 7.27681 5.80628 7.56147 5.8851Z" fill="#152764"/>
<path d="M7.75272 3.61496C8.62252 3.77261 9.46069 4.18249 10.1249 4.8446C10.8049 5.52248 11.2161 6.34223 11.3584 7.20929C11.4217 7.52458 11.7063 7.76105 12.0384 7.74528H12.0859C12.4812 7.72952 12.7659 7.36693 12.6868 6.98858C12.4812 5.85353 11.9436 4.76578 11.0738 3.88296C10.1882 3.00014 9.11277 2.46415 7.95831 2.27497C7.57877 2.21191 7.21503 2.49568 7.19922 2.87403V2.92132C7.19922 3.26814 7.43644 3.5519 7.75272 3.61496Z" fill="#152764"/>
<path d="M14.9947 6.89394C14.7575 5.20713 13.9984 3.58338 12.7016 2.29069C11.4049 0.997992 9.77597 0.241292 8.08382 0.00482334C7.70428 -0.0424704 7.35636 0.225527 7.34055 0.619642V0.6827C7.32473 1.02952 7.57776 1.31328 7.90987 1.36058C9.31735 1.54975 10.6616 2.1961 11.737 3.26809C12.8123 4.34008 13.4449 5.69584 13.6505 7.08312C13.6979 7.41418 13.9826 7.66641 14.3305 7.65064H14.3938C14.7575 7.61912 15.0422 7.27229 14.9947 6.89394Z" fill="#152764"/>
</g>
<defs>
<clipPath id="clip0_242_3776">
<rect width="15" height="15" fill="white"/>
</clipPath>
</defs>
</svg>
