<svg width="11" height="3" viewBox="0 0 11 3" fill="none" xmlns="http://www.w3.org/2000/svg">
<path d="M3 1.5C3 2.32843 2.32843 3 1.5 3C0.671573 3 0 2.32843 0 1.5C0 0.671573 0.671573 0 1.5 0C2.32843 0 3 0.671573 3 1.5Z" fill="#96CBFF"/>
<path d="M7 1.5C7 2.32843 6.32843 3 5.5 3C4.67157 3 4 2.32843 4 1.5C4 0.671573 4.67157 0 5.5 0C6.32843 0 7 0.671573 7 1.5Z" fill="#96CBFF"/>
<path d="M11 1.5C11 2.32843 10.3284 3 9.5 3C8.67157 3 8 2.32843 8 1.5C8 0.671573 8.67157 0 9.5 0C10.3284 0 11 0.671573 11 1.5Z" fill="#96CBFF"/>
</svg>
