<svg width="14" height="17" viewBox="0 0 14 17" fill="none" xmlns="http://www.w3.org/2000/svg">
<path d="M7.35342 0.0132034C8.23276 0 9.10595 0.0070418 9.97825 0C10.0319 1.02722 10.4016 2.07469 11.1534 2.8C11.9051 3.54555 12.9657 3.88796 14 4.0015V6.70732C13.0335 6.67387 12.06 6.4723 11.1798 6.05595C10.7969 5.88167 10.4412 5.65985 10.0918 5.43187C10.0848 7.39213 10.0988 9.35328 10.0786 11.3065C10.0249 12.2466 9.71594 13.1796 9.17196 13.9516C8.29262 15.2411 6.76807 16.08 5.20391 16.1072C4.24358 16.1609 3.28325 15.8995 2.46465 15.4154C1.10822 14.6161 0.154933 13.1523 0.0140974 11.582C0.00089398 11.2466 -0.00614782 10.9104 0.00705556 10.5812C0.127646 9.30574 0.758768 8.08311 1.73934 7.2513C2.85458 6.28481 4.41258 5.82093 5.86936 6.09644C5.88256 7.09022 5.84207 8.08399 5.84207 9.07776C5.1775 8.86299 4.3985 8.92373 3.81403 9.32599C3.39064 9.6015 3.06848 10.024 2.90124 10.5011C2.7604 10.8435 2.80089 11.2194 2.80705 11.582C2.96813 12.6832 4.02881 13.61 5.15725 13.5088C5.90897 13.5018 6.62723 13.0661 7.01717 12.4279C7.1448 12.2061 7.28564 11.9781 7.29268 11.7158C7.35958 10.5143 7.33317 9.31895 7.33933 8.11744C7.34638 5.41163 7.33317 2.71285 7.35342 0.0132034Z" fill="#737373"/>
</svg>
