<svg width="14" height="17" viewBox="0 0 14 17" fill="none" xmlns="http://www.w3.org/2000/svg">
<path d="M7.35342 0.513203C8.23276 0.5 9.10595 0.507042 9.97825 0.5C10.0319 1.52722 10.4016 2.57469 11.1533 3.3C11.9051 4.04555 12.9657 4.38796 14 4.5015V7.20732C13.0335 7.17387 12.06 6.9723 11.1798 6.55595C10.7969 6.38167 10.4412 6.15985 10.0918 5.93187C10.0848 7.89213 10.0988 9.85328 10.0786 11.8065C10.0249 12.7466 9.71594 13.6796 9.17196 14.4516C8.29262 15.7411 6.76807 16.58 5.20391 16.6072C4.24358 16.6609 3.28325 16.3995 2.46464 15.9154C1.10822 15.1161 0.154933 13.6523 0.0140974 12.082C0.00089398 11.7466 -0.00614783 11.4104 0.00705556 11.0812C0.127646 9.80574 0.758768 8.58311 1.73934 7.7513C2.85458 6.78481 4.41258 6.32093 5.86936 6.59644C5.88256 7.59022 5.84207 8.58399 5.84207 9.57776C5.1775 9.36299 4.3985 9.42373 3.81403 9.82599C3.39064 10.1015 3.06848 10.524 2.90124 11.0011C2.7604 11.3435 2.80089 11.7194 2.80705 12.082C2.96813 13.1832 4.02881 14.11 5.15725 14.0088C5.90897 14.0018 6.62723 13.5661 7.01717 12.9279C7.1448 12.7061 7.28564 12.4781 7.29268 12.2158C7.35958 11.0143 7.33317 9.81895 7.33933 8.61744C7.34638 5.91163 7.33317 3.21285 7.35342 0.513203Z" fill="#96CBFF"/>
</svg>
