<svg width="16" height="12" viewBox="0 0 16 12" fill="none" xmlns="http://www.w3.org/2000/svg">
<path d="M15.6657 2.16897C15.4817 1.51203 14.9395 0.994639 14.2511 0.819056C13.0033 0.5 8 0.5 8 0.5C8 0.5 2.99669 0.5 1.7489 0.819056C1.06052 0.994667 0.518349 1.51203 0.334336 2.16897C0 3.35972 0 5.84411 0 5.84411C0 5.84411 0 8.3285 0.334336 9.51925C0.518349 10.1762 1.06052 10.672 1.7489 10.8476C2.99669 11.1667 8 11.1667 8 11.1667C8 11.1667 13.0033 11.1667 14.2511 10.8476C14.9395 10.672 15.4817 10.1762 15.6657 9.51925C16 8.3285 16 5.84411 16 5.84411C16 5.84411 16 3.35972 15.6657 2.16897ZM6.36362 8.09975V3.58847L10.5454 5.84417L6.36362 8.09975Z" fill="#96CBFF"/>
</svg>
